<svg xmlns="http://www.w3.org/2000/svg" version="1.1" xmlns:xlink="http://www.w3.org/1999/xlink" xmlns:svgjs="http://svgjs.dev/svgjs" width="2000" height="303" viewBox="0 0 2000 303"><g transform="matrix(1,0,0,1,-1.2121212121212466,-2.140502059250906)"><svg viewBox="0 0 396 60" data-background-color="#040046" preserveAspectRatio="xMidYMid meet" height="303" width="2000" xmlns="http://www.w3.org/2000/svg" xmlns:xlink="http://www.w3.org/1999/xlink"><g id="tight-bounds" transform="matrix(1,0,0,1,0.2400000000000091,0.4238617939110725)"><svg viewBox="0 0 395.52 59.15227641217784" height="59.15227641217784" width="395.52"><g><svg viewBox="0 0 484.52114301655115 72.46290599529577" height="59.15227641217784" width="395.52"><g transform="matrix(1,0,0,1,0,1.2758784702500279)"><svg viewBox="0 0 395.52 69.91114905479571" height="69.91114905479571" width="395.52"><g id="textblocktransform"><svg viewBox="0 0 395.52 69.91114905479571" height="69.91114905479571" width="395.52" id="textblock"><g><svg viewBox="0 0 395.52 69.91114905479571" height="69.91114905479571" width="395.52"><g transform="matrix(1,0,0,1,0,0)"><svg width="395.52" viewBox="2.73 -38.35 280.22999999999996 49.53" height="69.91114905479571" data-palette-color="url(#ea4b8d83-f741-485e-ad81-9f5e9104fdd0)"></svg></g></svg></g></svg></g></svg></g><g transform="matrix(1,0,0,1,412.02434442425994,0)"><svg viewBox="0 0 72.49679859229119 72.46290599529577" height="72.46290599529577" width="72.49679859229119"><g><svg xmlns="http://www.w3.org/2000/svg" xmlns:xlink="http://www.w3.org/1999/xlink" version="1.1" x="0" y="0" viewBox="0.7607695154586737 0.7749999999999999 30.439230484541326 30.425" enable-background="new 0 0 32 32" xml:space="preserve" height="72.46290599529577" width="72.49679859229119" class="icon-icon-0" data-fill-palette-color="accent" id="icon-0"></svg></g></svg></g></svg></g><defs></defs><mask id="114e2be7-a6cc-4d5a-b0c7-e937cc17ce48"><g id="SvgjsG1379"><svg viewBox="0 0 395.52 59.15227641217784" height="59.15227641217784" width="395.52"><g><svg viewBox="0 0 484.52114301655115 72.46290599529577" height="59.15227641217784" width="395.52"><g transform="matrix(1,0,0,1,0,1.2758784702500279)"><svg viewBox="0 0 395.52 69.91114905479571" height="69.91114905479571" width="395.52"><g id="SvgjsG1378"><svg viewBox="0 0 395.52 69.91114905479571" height="69.91114905479571" width="395.52" id="SvgjsSvg1377"><g><svg viewBox="0 0 395.52 69.91114905479571" height="69.91114905479571" width="395.52"><g transform="matrix(1,0,0,1,0,0)"><svg width="395.52" viewBox="2.73 -38.35 280.22999999999996 49.53" height="69.91114905479571" data-palette-color="url(#ea4b8d83-f741-485e-ad81-9f5e9104fdd0)"><path d="M14.62 0.49L14.62 0.49Q11.79 0.49 9.47-0.17 7.15-0.83 5.44-1.89 3.74-2.95 2.73-4.17L2.73-4.17 5.35-6.69 5.66-6.69Q7.4-4.98 9.78-4.13 12.16-3.27 14.6-3.27L14.6-3.27Q17.92-3.27 20.15-4.65 22.39-6.03 22.39-9.38L22.39-9.38Q22.39-11.06 21.78-12.08 21.17-13.11 19.68-13.95 18.19-14.79 15.58-15.87L15.58-15.87 10.62-17.92Q8.18-18.95 6.43-19.95 4.69-20.95 3.77-22.45 2.86-23.95 2.86-26.44L2.86-26.44Q2.86-29.27 3.87-31.14 4.88-33.01 6.62-34.08 8.35-35.16 10.56-35.6 12.77-36.04 15.14-36.04L15.14-36.04Q17.5-36.04 19.6-35.49 21.7-34.94 23.44-33.91 25.17-32.89 26.39-31.47L26.39-31.47 23.85-28.93 23.49-28.93Q22.09-30.54 19.86-31.43 17.63-32.32 14.94-32.32L14.94-32.32Q12.96-32.32 11.29-31.84 9.62-31.35 8.62-30.19 7.62-29.03 7.62-26.95L7.62-26.95Q7.62-25.68 8.07-24.82 8.52-23.95 9.63-23.25 10.74-22.56 12.7-21.75L12.7-21.75 17.7-19.73Q20.61-18.55 22.67-17.37 24.73-16.19 25.82-14.36 26.9-12.52 26.9-9.35L26.9-9.35Q26.9-6.57 25.84-4.68 24.78-2.78 23-1.65 21.22-0.51 19.04-0.01 16.87 0.49 14.62 0.49ZM44.72 0.49L44.72 0.49Q41.06 0.49 38.36-1.2 35.67-2.88 34.19-5.97 32.71-9.06 32.71-13.26L32.71-13.26Q32.71-17.48 34.19-20.56 35.67-23.63 38.36-25.32 41.06-27 44.72-27L44.72-27Q47.63-27 49.53-26.16 51.44-25.32 52.56-24.02 53.68-22.73 54.25-21.39L54.25-21.39 51.49-19.8 51.17-19.8Q50.27-21.46 48.84-22.56 47.41-23.66 44.92-23.66L44.92-23.66Q42.4-23.66 40.7-22.42 38.99-21.19 38.13-18.86 37.28-16.53 37.28-13.26L37.28-13.26Q37.28-10.01 38.13-7.68 38.99-5.35 40.68-4.1 42.38-2.86 44.92-2.86L44.92-2.86Q47.41-2.86 48.83-3.92 50.24-4.98 51.14-6.64L51.14-6.64 51.46-6.64 54.25-5.13Q53.68-3.78 52.56-2.49 51.44-1.2 49.53-0.35 47.63 0.49 44.72 0.49ZM65.06 0L60.64 0 60.64-26.42 64.23-26.42 64.67-20.92Q66.04-24.19 68.04-25.46 70.04-26.73 72.29-26.73L72.29-26.73Q72.82-26.73 73.29-26.71 73.75-26.68 74.21-26.61L74.21-26.61 73.87-23.1Q73.63-23.1 73.38-23.11 73.14-23.12 72.87-23.12L72.87-23.12Q70.23-23.12 68.5-22.02 66.77-20.92 65.91-19.08 65.06-17.24 65.06-14.99L65.06-14.99 65.06 0ZM84.47 0L80.02 0 80.02-26.42 84.47-26.42 84.47 0ZM82.24-32.47L82.24-32.47Q80.75-32.47 79.95-33.25 79.14-34.03 79.14-35.45L79.14-35.45Q79.14-36.82 79.95-37.59 80.75-38.35 82.24-38.35L82.24-38.35Q83.73-38.35 84.54-37.59 85.34-36.82 85.34-35.45L85.34-35.45Q85.34-34.03 84.54-33.25 83.73-32.47 82.24-32.47ZM96.99 11.18L92.57 11.18 92.57-26.42 96.28-26.42 96.69-20.97Q97.67-23.97 99.81-25.49 101.94-27 104.9-27L104.9-27Q108.49-27 110.81-25.26 113.12-23.51 114.25-20.41 115.37-17.31 115.37-13.18L115.37-13.18Q115.37-9.18 114.02-6.09 112.66-3 110.16-1.26 107.66 0.49 104.19 0.49L104.19 0.49Q101.77 0.49 99.93-0.22 98.09-0.93 96.87-2.17L96.87-2.17 96.99 1.64 96.99 11.18ZM103.8-2.81L103.8-2.81Q105.63-2.81 106.95-3.52 108.27-4.22 109.12-5.58 109.98-6.93 110.39-8.86 110.81-10.79 110.81-13.23L110.81-13.23Q110.81-16.28 110.21-18.64 109.61-21 108.18-22.34 106.75-23.68 104.26-23.68L104.26-23.68Q101.65-23.68 100.03-22.46 98.4-21.24 97.63-19.08 96.87-16.92 96.84-14.04L96.84-14.04 96.84-6.1Q98.06-4.44 99.86-3.63 101.65-2.81 103.8-2.81ZM132.56 0.2L132.56 0.2Q129.75 0.2 128.03-0.23 126.31-0.66 125.41-1.61 124.52-2.56 124.21-4.17 123.89-5.79 123.89-8.15L123.89-8.15 123.89-23.71 119.71-23.71 119.84-26.17 124.01-26.39 124.65-33.54 128.33-33.81 128.33-26.42 135.36-26.42 135.36-23.71 128.33-23.71 128.33-8.13Q128.33-6.05 128.56-4.98 128.8-3.91 129.7-3.5 130.6-3.1 132.56-3.03L132.56-3.03Q133.22-3 133.87-2.98 134.53-2.95 135.19-2.93L135.19-2.93 135 0.2Q134.39 0.2 133.78 0.2 133.17 0.2 132.56 0.2ZM153.57 0L149.08 0 139.63-35.55 143.88-35.55 151.55-6.32 159.9-34.84 164.34-34.84 172.62-6.01 179.6-35.55 184.19-35.55 174.96 0 170.4 0 162.14-29.08 153.57 0ZM194.68 0L190.27 0 190.27-26.42 193.85-26.42 194.29-20.92Q195.66-24.19 197.66-25.46 199.67-26.73 201.91-26.73L201.91-26.73Q202.45-26.73 202.91-26.71 203.38-26.68 203.84-26.61L203.84-26.61 203.5-23.1Q203.25-23.1 203.01-23.11 202.77-23.12 202.5-23.12L202.5-23.12Q199.86-23.12 198.13-22.02 196.39-20.92 195.54-19.08 194.68-17.24 194.68-14.99L194.68-14.99 194.68 0ZM214.09 0L209.65 0 209.65-26.42 214.09-26.42 214.09 0ZM211.87-32.47L211.87-32.47Q210.38-32.47 209.57-33.25 208.77-34.03 208.77-35.45L208.77-35.45Q208.77-36.82 209.57-37.59 210.38-38.35 211.87-38.35L211.87-38.35Q213.36-38.35 214.16-37.59 214.97-36.82 214.97-35.45L214.97-35.45Q214.97-34.03 214.16-33.25 213.36-32.47 211.87-32.47ZM232.35 0.2L232.35 0.2Q229.54 0.2 227.82-0.23 226.1-0.66 225.21-1.61 224.32-2.56 224-4.17 223.68-5.79 223.68-8.15L223.68-8.15 223.68-23.71 219.51-23.71 219.63-26.17 223.81-26.39 224.44-33.54 228.13-33.81 228.13-26.42 235.16-26.42 235.16-23.71 228.13-23.71 228.13-8.13Q228.13-6.05 228.36-4.98 228.59-3.91 229.49-3.5 230.4-3.1 232.35-3.03L232.35-3.03Q233.01-3 233.67-2.98 234.33-2.95 234.99-2.93L234.99-2.93 234.79 0.2Q234.18 0.2 233.57 0.2 232.96 0.2 232.35 0.2ZM252.86 0.49L252.86 0.49Q249.29 0.49 246.42-1.15 243.55-2.78 241.88-5.85 240.21-8.91 240.21-13.13L240.21-13.13Q240.21-17.53 241.85-20.63 243.48-23.73 246.24-25.37 249-27 252.32-27L252.32-27Q255.57-27 257.86-25.56 260.16-24.12 261.39-21.46 262.62-18.8 262.62-15.14L262.62-15.14Q262.62-14.77 262.56-14.14 262.5-13.5 262.45-12.99 262.4-12.48 262.4-12.43L262.4-12.43 244.75-12.43Q244.95-9.06 246.11-6.93 247.27-4.81 249.16-3.81 251.05-2.81 253.42-2.81L253.42-2.81Q255.69-2.81 257.3-3.45 258.91-4.1 260.55-5.03L260.55-5.03 260.86-5.03 261.89-2.12Q260.25-1 257.95-0.26 255.64 0.49 252.86 0.49ZM244.82-15.31L244.82-15.31 258.81-15.31Q258.76-19.29 257.24-21.5 255.71-23.71 252.54-23.71L252.54-23.71Q249.34-23.71 247.25-21.45 245.17-19.19 244.82-15.31ZM273.8 0L269.38 0 269.38-26.42 272.97-26.42 273.41-20.92Q274.78-24.19 276.78-25.46 278.78-26.73 281.03-26.73L281.03-26.73Q281.56-26.73 282.03-26.71 282.49-26.68 282.96-26.61L282.96-26.61 282.61-23.1Q282.37-23.1 282.13-23.11 281.88-23.12 281.61-23.12L281.61-23.12Q278.98-23.12 277.24-22.02 275.51-20.92 274.66-19.08 273.8-17.24 273.8-14.99L273.8-14.99 273.8 0Z" opacity="1" transform="matrix(1,0,0,1,0,0)" fill="white" class="wordmark-text-0" id="SvgjsPath1376"></path></svg></g></svg></g></svg></g></svg></g><g transform="matrix(1,0,0,1,412.02434442425994,0)"><svg viewBox="0 0 72.49679859229119 72.46290599529577" height="72.46290599529577" width="72.49679859229119"><g><svg xmlns="http://www.w3.org/2000/svg" xmlns:xlink="http://www.w3.org/1999/xlink" version="1.1" x="0" y="0" viewBox="0.7607695154586737 0.7749999999999999 30.439230484541326 30.425" enable-background="new 0 0 32 32" xml:space="preserve" height="72.46290599529577" width="72.49679859229119" class="icon-icon-0" data-fill-palette-color="accent" id="SvgjsSvg1375"><g fill="black"><g fill="black"><path fill="black" d="M1.5 31.2C1.3 31.2 1.1 31.1 1 31 0.8 30.8 0.7 30.6 0.8 30.3L4.5 11.2C4.6 10.9 4.8 10.6 5.1 10.6L14.7 9.3C14.9 9.3 15.2 9.3 15.3 9.5L22.5 16.7C22.7 16.9 22.7 17.1 22.7 17.3L21.4 26.9C21.4 27.2 21.1 27.5 20.8 27.5L1.6 31.2zM5.8 12.1L2.4 29.6 19.9 26.2 21.1 17.5 14.4 10.8z"></path></g><g fill="black"><rect x="5.2" y="19.8" transform="matrix(-0.7071 -0.7071 0.7071 -0.7071 -8.3465 48.7211)" fill="black" width="1.5" height="12.6"></rect></g><g fill="black"><path fill="black" d="M12 23.1C11.2 23.1 10.4 22.8 9.8 22.2S8.9 20.9 8.9 20C8.9 19.2 9.2 18.4 9.8 17.8 11 16.6 13 16.6 14.1 17.8 15.3 19 15.3 20.9 14.1 22.1 13.6 22.8 12.8 23.1 12 23.1M12 18.4C11.6 18.4 11.2 18.6 10.9 18.9S10.4 19.6 10.4 20 10.6 20.8 10.9 21.1C11.5 21.7 12.5 21.7 13.1 21.1S13.7 19.5 13.1 18.9C12.8 18.6 12.4 18.4 12 18.4"></path></g><g fill="black"><path fill="black" d="M23.8 18.7C22.9 18.7 22 18.3 21.4 17.7L14.3 10.6C13 9.3 13 7.1 14.3 5.8L19.1 1C19.4 0.7 19.9 0.7 20.2 1L31 11.8C31.1 11.9 31.2 12.1 31.2 12.3S31.1 12.7 31 12.8L26.1 17.7C25.5 18.4 24.7 18.7 23.8 18.7M19.7 2.6L15.4 6.9C14.7 7.6 14.7 8.9 15.4 9.6L22.5 16.7C23.2 17.4 24.5 17.4 25.2 16.7L29.5 12.4z"></path></g></g></svg></g></svg></g></svg></g><defs><mask></mask></defs></svg><rect width="395.52" height="59.15227641217784" fill="black" stroke="none" visibility="hidden"></rect></g></mask><linearGradient x1="0" x2="1" y1="0.578" y2="0.595" id="ea4b8d83-f741-485e-ad81-9f5e9104fdd0"><stop stop-color="#6ee2f5" offset="0"></stop><stop stop-color="#6454f0" offset="1"></stop></linearGradient><rect width="395.52" height="59.15227641217784" fill="url(#ea4b8d83-f741-485e-ad81-9f5e9104fdd0)" mask="url(#114e2be7-a6cc-4d5a-b0c7-e937cc17ce48)" data-fill-palette-color="primary"></rect><mask id="053d2817-abfe-4286-b305-498de93dfc6d"><g id="SvgjsG1398"><svg viewBox="0 0 395.52 59.15227641217784" height="59.15227641217784" width="395.52"><g><svg viewBox="0 0 484.52114301655115 72.46290599529577" height="59.15227641217784" width="395.52"><g transform="matrix(1,0,0,1,0,1.2758784702500279)"><svg viewBox="0 0 395.52 69.91114905479571" height="69.91114905479571" width="395.52"><g id="SvgjsG1397"><svg viewBox="0 0 395.52 69.91114905479571" height="69.91114905479571" width="395.52" id="SvgjsSvg1396"><g><svg viewBox="0 0 395.52 69.91114905479571" height="69.91114905479571" width="395.52"><g transform="matrix(1,0,0,1,0,0)"><svg width="395.52" viewBox="2.73 -38.35 280.22999999999996 49.53" height="69.91114905479571" data-palette-color="url(#ea4b8d83-f741-485e-ad81-9f5e9104fdd0)"></svg></g></svg></g></svg></g></svg></g><g transform="matrix(1,0,0,1,412.02434442425994,0)"><svg viewBox="0 0 72.49679859229119 72.46290599529577" height="72.46290599529577" width="72.49679859229119"><g><svg xmlns="http://www.w3.org/2000/svg" xmlns:xlink="http://www.w3.org/1999/xlink" version="1.1" x="0" y="0" viewBox="0.7607695154586737 0.7749999999999999 30.439230484541326 30.425" enable-background="new 0 0 32 32" xml:space="preserve" height="72.46290599529577" width="72.49679859229119" class="icon-icon-0" data-fill-palette-color="accent" id="SvgjsSvg1395"><g fill="white"><g fill="white"><path fill="white" d="M1.5 31.2C1.3 31.2 1.1 31.1 1 31 0.8 30.8 0.7 30.6 0.8 30.3L4.5 11.2C4.6 10.9 4.8 10.6 5.1 10.6L14.7 9.3C14.9 9.3 15.2 9.3 15.3 9.5L22.5 16.7C22.7 16.9 22.7 17.1 22.7 17.3L21.4 26.9C21.4 27.2 21.1 27.5 20.8 27.5L1.6 31.2zM5.8 12.1L2.4 29.6 19.9 26.2 21.1 17.5 14.4 10.8z"></path></g><g fill="white"><rect x="5.2" y="19.8" transform="matrix(-0.7071 -0.7071 0.7071 -0.7071 -8.3465 48.7211)" fill="white" width="1.5" height="12.6"></rect></g><g fill="white"><path fill="white" d="M12 23.1C11.2 23.1 10.4 22.8 9.8 22.2S8.9 20.9 8.9 20C8.9 19.2 9.2 18.4 9.8 17.8 11 16.6 13 16.6 14.1 17.8 15.3 19 15.3 20.9 14.1 22.1 13.6 22.8 12.8 23.1 12 23.1M12 18.4C11.6 18.4 11.2 18.6 10.9 18.9S10.4 19.6 10.4 20 10.6 20.8 10.9 21.1C11.5 21.7 12.5 21.7 13.1 21.1S13.7 19.5 13.1 18.9C12.8 18.6 12.4 18.4 12 18.4"></path></g><g fill="white"><path fill="white" d="M23.8 18.7C22.9 18.7 22 18.3 21.4 17.7L14.3 10.6C13 9.3 13 7.1 14.3 5.8L19.1 1C19.4 0.7 19.9 0.7 20.2 1L31 11.8C31.1 11.9 31.2 12.1 31.2 12.3S31.1 12.7 31 12.8L26.1 17.7C25.5 18.4 24.7 18.7 23.8 18.7M19.7 2.6L15.4 6.9C14.7 7.6 14.7 8.9 15.4 9.6L22.5 16.7C23.2 17.4 24.5 17.4 25.2 16.7L29.5 12.4z"></path></g></g></svg></g></svg></g></svg></g><defs><mask></mask></defs><mask><g id="SvgjsG1394"><svg viewBox="0 0 395.52 59.15227641217784" height="59.15227641217784" width="395.52"><g><svg viewBox="0 0 484.52114301655115 72.46290599529577" height="59.15227641217784" width="395.52"><g transform="matrix(1,0,0,1,0,1.2758784702500279)"><svg viewBox="0 0 395.52 69.91114905479571" height="69.91114905479571" width="395.52"><g id="SvgjsG1393"><svg viewBox="0 0 395.52 69.91114905479571" height="69.91114905479571" width="395.52" id="SvgjsSvg1392"><g><svg viewBox="0 0 395.52 69.91114905479571" height="69.91114905479571" width="395.52"><g transform="matrix(1,0,0,1,0,0)"><svg width="395.52" viewBox="2.73 -38.35 280.22999999999996 49.53" height="69.91114905479571" data-palette-color="url(#ea4b8d83-f741-485e-ad81-9f5e9104fdd0)"><path d="M14.62 0.49L14.62 0.49Q11.79 0.49 9.47-0.17 7.15-0.83 5.44-1.89 3.74-2.95 2.73-4.17L2.73-4.17 5.35-6.69 5.66-6.69Q7.4-4.98 9.78-4.13 12.16-3.27 14.6-3.27L14.6-3.27Q17.92-3.27 20.15-4.65 22.39-6.03 22.39-9.38L22.39-9.38Q22.39-11.06 21.78-12.08 21.17-13.11 19.68-13.95 18.19-14.79 15.58-15.87L15.58-15.87 10.62-17.92Q8.18-18.95 6.43-19.95 4.69-20.95 3.77-22.45 2.86-23.95 2.86-26.44L2.86-26.44Q2.86-29.27 3.87-31.14 4.88-33.01 6.62-34.08 8.35-35.16 10.56-35.6 12.77-36.04 15.14-36.04L15.14-36.04Q17.5-36.04 19.6-35.49 21.7-34.94 23.44-33.91 25.17-32.89 26.39-31.47L26.39-31.47 23.85-28.93 23.49-28.93Q22.09-30.54 19.86-31.43 17.63-32.32 14.94-32.32L14.94-32.32Q12.96-32.32 11.29-31.84 9.62-31.35 8.62-30.19 7.62-29.03 7.62-26.95L7.62-26.95Q7.62-25.68 8.07-24.82 8.52-23.95 9.63-23.25 10.74-22.56 12.7-21.75L12.7-21.75 17.7-19.73Q20.61-18.55 22.67-17.37 24.73-16.19 25.82-14.36 26.9-12.52 26.9-9.35L26.9-9.35Q26.9-6.57 25.84-4.68 24.78-2.78 23-1.65 21.22-0.51 19.04-0.01 16.87 0.49 14.62 0.49ZM44.72 0.49L44.72 0.49Q41.06 0.49 38.36-1.2 35.67-2.88 34.19-5.97 32.71-9.06 32.71-13.26L32.71-13.26Q32.71-17.48 34.19-20.56 35.67-23.63 38.36-25.32 41.06-27 44.72-27L44.72-27Q47.63-27 49.53-26.16 51.44-25.32 52.56-24.02 53.68-22.73 54.25-21.39L54.25-21.39 51.49-19.8 51.17-19.8Q50.27-21.46 48.84-22.56 47.41-23.66 44.92-23.66L44.92-23.66Q42.4-23.66 40.7-22.42 38.99-21.19 38.13-18.86 37.28-16.53 37.28-13.26L37.28-13.26Q37.28-10.01 38.13-7.68 38.99-5.35 40.68-4.1 42.38-2.86 44.92-2.86L44.92-2.86Q47.41-2.86 48.83-3.92 50.24-4.98 51.14-6.64L51.14-6.64 51.46-6.64 54.25-5.13Q53.68-3.78 52.56-2.49 51.44-1.2 49.53-0.35 47.63 0.49 44.72 0.49ZM65.06 0L60.64 0 60.64-26.42 64.23-26.42 64.67-20.92Q66.04-24.19 68.04-25.46 70.04-26.73 72.29-26.73L72.29-26.73Q72.82-26.73 73.29-26.71 73.75-26.68 74.21-26.61L74.21-26.61 73.87-23.1Q73.63-23.1 73.38-23.11 73.14-23.12 72.87-23.12L72.87-23.12Q70.23-23.12 68.5-22.02 66.77-20.92 65.91-19.08 65.06-17.24 65.06-14.99L65.06-14.99 65.06 0ZM84.47 0L80.02 0 80.02-26.42 84.47-26.42 84.47 0ZM82.24-32.47L82.24-32.47Q80.75-32.47 79.95-33.25 79.14-34.03 79.14-35.45L79.14-35.45Q79.14-36.82 79.95-37.59 80.75-38.35 82.24-38.35L82.24-38.35Q83.73-38.35 84.54-37.59 85.34-36.82 85.34-35.45L85.34-35.45Q85.34-34.03 84.54-33.25 83.73-32.47 82.24-32.47ZM96.99 11.18L92.57 11.18 92.57-26.42 96.28-26.42 96.69-20.97Q97.67-23.97 99.81-25.49 101.94-27 104.9-27L104.9-27Q108.49-27 110.81-25.26 113.12-23.51 114.25-20.41 115.37-17.31 115.37-13.18L115.37-13.18Q115.37-9.18 114.02-6.09 112.66-3 110.16-1.26 107.66 0.49 104.19 0.49L104.19 0.49Q101.77 0.49 99.93-0.22 98.09-0.93 96.87-2.17L96.87-2.17 96.99 1.64 96.99 11.18ZM103.8-2.81L103.8-2.81Q105.63-2.81 106.95-3.52 108.27-4.22 109.12-5.58 109.98-6.93 110.39-8.86 110.81-10.79 110.81-13.23L110.81-13.23Q110.81-16.28 110.21-18.64 109.61-21 108.18-22.34 106.75-23.68 104.26-23.68L104.26-23.68Q101.65-23.68 100.03-22.46 98.4-21.24 97.63-19.08 96.87-16.92 96.84-14.04L96.84-14.04 96.84-6.1Q98.06-4.44 99.86-3.63 101.65-2.81 103.8-2.81ZM132.56 0.2L132.56 0.2Q129.75 0.2 128.03-0.23 126.31-0.66 125.41-1.61 124.52-2.56 124.21-4.17 123.89-5.79 123.89-8.15L123.89-8.15 123.89-23.71 119.71-23.71 119.84-26.17 124.01-26.39 124.65-33.54 128.33-33.81 128.33-26.42 135.36-26.42 135.36-23.71 128.33-23.71 128.33-8.13Q128.33-6.05 128.56-4.98 128.8-3.91 129.7-3.5 130.6-3.1 132.56-3.03L132.56-3.03Q133.22-3 133.87-2.98 134.53-2.95 135.19-2.93L135.19-2.93 135 0.2Q134.39 0.2 133.78 0.2 133.17 0.2 132.56 0.2ZM153.57 0L149.08 0 139.63-35.55 143.88-35.55 151.55-6.32 159.9-34.84 164.34-34.84 172.62-6.01 179.6-35.55 184.19-35.55 174.96 0 170.4 0 162.14-29.08 153.57 0ZM194.68 0L190.27 0 190.27-26.42 193.85-26.42 194.29-20.92Q195.66-24.19 197.66-25.46 199.67-26.73 201.91-26.73L201.91-26.73Q202.45-26.73 202.91-26.71 203.38-26.68 203.84-26.61L203.84-26.61 203.5-23.1Q203.25-23.1 203.01-23.11 202.77-23.12 202.5-23.12L202.5-23.12Q199.86-23.12 198.13-22.02 196.39-20.92 195.54-19.08 194.68-17.24 194.68-14.99L194.68-14.99 194.68 0ZM214.09 0L209.65 0 209.65-26.42 214.09-26.42 214.09 0ZM211.87-32.47L211.87-32.47Q210.38-32.47 209.57-33.25 208.77-34.03 208.77-35.45L208.77-35.45Q208.77-36.82 209.57-37.59 210.38-38.35 211.87-38.35L211.87-38.35Q213.36-38.35 214.16-37.59 214.97-36.82 214.97-35.45L214.97-35.45Q214.97-34.03 214.16-33.25 213.36-32.47 211.87-32.47ZM232.35 0.2L232.35 0.2Q229.54 0.2 227.82-0.23 226.1-0.66 225.21-1.61 224.32-2.56 224-4.17 223.68-5.79 223.68-8.15L223.68-8.15 223.68-23.71 219.51-23.71 219.63-26.17 223.81-26.39 224.44-33.54 228.13-33.81 228.13-26.42 235.16-26.42 235.16-23.71 228.13-23.71 228.13-8.13Q228.13-6.05 228.36-4.98 228.59-3.91 229.49-3.5 230.4-3.1 232.35-3.03L232.35-3.03Q233.01-3 233.67-2.98 234.33-2.95 234.99-2.93L234.99-2.93 234.79 0.2Q234.18 0.2 233.57 0.2 232.96 0.2 232.35 0.2ZM252.86 0.49L252.86 0.49Q249.29 0.49 246.42-1.15 243.55-2.78 241.88-5.85 240.21-8.91 240.21-13.13L240.21-13.13Q240.21-17.53 241.85-20.63 243.48-23.73 246.24-25.37 249-27 252.32-27L252.32-27Q255.57-27 257.86-25.56 260.16-24.12 261.39-21.46 262.62-18.8 262.62-15.14L262.62-15.14Q262.62-14.77 262.56-14.14 262.5-13.5 262.45-12.99 262.4-12.48 262.4-12.43L262.4-12.43 244.75-12.43Q244.95-9.06 246.11-6.93 247.27-4.81 249.16-3.81 251.05-2.81 253.42-2.81L253.42-2.81Q255.69-2.81 257.3-3.45 258.91-4.1 260.55-5.03L260.55-5.03 260.86-5.03 261.89-2.12Q260.25-1 257.95-0.26 255.64 0.49 252.86 0.49ZM244.82-15.31L244.82-15.31 258.81-15.31Q258.76-19.29 257.24-21.5 255.71-23.71 252.54-23.71L252.54-23.71Q249.34-23.71 247.25-21.45 245.17-19.19 244.82-15.31ZM273.8 0L269.38 0 269.38-26.42 272.97-26.42 273.41-20.92Q274.78-24.19 276.78-25.46 278.78-26.73 281.03-26.73L281.03-26.73Q281.56-26.73 282.03-26.71 282.49-26.68 282.96-26.61L282.96-26.61 282.61-23.1Q282.37-23.1 282.13-23.11 281.88-23.12 281.61-23.12L281.61-23.12Q278.98-23.12 277.24-22.02 275.51-20.92 274.66-19.08 273.8-17.24 273.8-14.99L273.8-14.99 273.8 0Z" opacity="1" transform="matrix(1,0,0,1,0,0)" fill="black" class="wordmark-text-0" id="SvgjsPath1391"></path></svg></g></svg></g></svg></g></svg></g><g transform="matrix(1,0,0,1,412.02434442425994,0)"><svg viewBox="0 0 72.49679859229119 72.46290599529577" height="72.46290599529577" width="72.49679859229119"><g><svg xmlns="http://www.w3.org/2000/svg" xmlns:xlink="http://www.w3.org/1999/xlink" version="1.1" x="0" y="0" viewBox="0.7607695154586737 0.7749999999999999 30.439230484541326 30.425" enable-background="new 0 0 32 32" xml:space="preserve" height="72.46290599529577" width="72.49679859229119" class="icon-icon-0" data-fill-palette-color="accent" id="SvgjsSvg1390"><g fill="black"><g fill="black"><path fill="black" d="M1.5 31.2C1.3 31.2 1.1 31.1 1 31 0.8 30.8 0.7 30.6 0.8 30.3L4.5 11.2C4.6 10.9 4.8 10.6 5.1 10.6L14.7 9.3C14.9 9.3 15.2 9.3 15.3 9.5L22.5 16.7C22.7 16.9 22.7 17.1 22.7 17.3L21.4 26.9C21.4 27.2 21.1 27.5 20.8 27.5L1.6 31.2zM5.8 12.1L2.4 29.6 19.9 26.2 21.1 17.5 14.4 10.8z"></path></g><g fill="black"><rect x="5.2" y="19.8" transform="matrix(-0.7071 -0.7071 0.7071 -0.7071 -8.3465 48.7211)" fill="black" width="1.5" height="12.6"></rect></g><g fill="black"><path fill="black" d="M12 23.1C11.2 23.1 10.4 22.8 9.8 22.2S8.9 20.9 8.9 20C8.9 19.2 9.2 18.4 9.8 17.8 11 16.6 13 16.6 14.1 17.8 15.3 19 15.3 20.9 14.1 22.1 13.6 22.8 12.8 23.1 12 23.1M12 18.4C11.6 18.4 11.2 18.6 10.9 18.9S10.4 19.6 10.4 20 10.6 20.8 10.9 21.1C11.5 21.7 12.5 21.7 13.1 21.1S13.7 19.5 13.1 18.9C12.8 18.6 12.4 18.4 12 18.4"></path></g><g fill="black"><path fill="black" d="M23.8 18.7C22.9 18.7 22 18.3 21.4 17.7L14.3 10.6C13 9.3 13 7.1 14.3 5.8L19.1 1C19.4 0.7 19.9 0.7 20.2 1L31 11.8C31.1 11.9 31.2 12.1 31.2 12.3S31.1 12.7 31 12.8L26.1 17.7C25.5 18.4 24.7 18.7 23.8 18.7M19.7 2.6L15.4 6.9C14.7 7.6 14.7 8.9 15.4 9.6L22.5 16.7C23.2 17.4 24.5 17.4 25.2 16.7L29.5 12.4z"></path></g></g></svg></g></svg></g></svg></g><defs><mask></mask></defs></svg><rect width="395.52" height="59.15227641217784" fill="black" stroke="none" visibility="hidden"></rect></g></mask></svg><rect width="395.52" height="59.15227641217784" fill="black" stroke="none" visibility="hidden"></rect></g></mask><linearGradient x1="0" x2="1" y1="0.578" y2="0.595" id="5221d958-6b37-468c-9299-6d63b2132111"><stop stop-color="#6ee2f5" offset="0"></stop><stop stop-color="#6454f0" offset="1"></stop></linearGradient><rect width="395.52" height="59.15227641217784" fill="url(#5221d958-6b37-468c-9299-6d63b2132111)" mask="url(#053d2817-abfe-4286-b305-498de93dfc6d)" data-fill-palette-color="accent"></rect></svg><rect width="395.52" height="59.15227641217784" fill="none" stroke="none" visibility="hidden"></rect></g></svg></g></svg>